<svg xmlns="http://www.w3.org/2000/svg" viewBox="0 0 512 512" fill="white">
  <path d="M480,226.15V80a48,48,0,0,0-48-48H80A48,48,0,0,0,32,80V226.15C13.74,231,0,246.89,0,266.67V472a8,8,0,0,0,8,8H24a8,8,0,0,0,8-8V416H480v56a8,8,0,0,0,8,8h16a8,8,0,0,0,8-8V266.67C512,246.89,498.26,231,480,226.15ZM64,192a32,32,0,0,1,32-32h64a32,32,0,0,1,32,32v32H64Zm384,32H320V192a32,32,0,0,1,32-32h64a32,32,0,0,1,32,32ZM80,64H432a16,16,0,0,1,16,16v56.9a63.27,63.27,0,0,0-32-8.9H352a63.9,63.9,0,0,0-48,21.71A63.9,63.9,0,0,0,256,128H192a63.9,63.9,0,0,0-48,21.71A63.9,63.9,0,0,0,96,128H64a63.27,63.27,0,0,0-32,8.9V80A16,16,0,0,1,48,64ZM32,384V266.67A10.69,10.69,0,0,1,42.67,256H469.33A10.69,10.69,0,0,1,480,266.67V384Z"/>
  <path d="M144,320H112a16,16,0,0,0-16,16v32a16,16,0,0,0,16,16h32a16,16,0,0,0,16-16V336A16,16,0,0,0,144,320Z"/>
  <path d="M240,320H208a16,16,0,0,0-16,16v32a16,16,0,0,0,16,16h32a16,16,0,0,0,16-16V336A16,16,0,0,0,240,320Z"/>
  <path d="M336,320H304a16,16,0,0,0-16,16v32a16,16,0,0,0,16,16h32a16,16,0,0,0,16-16V336A16,16,0,0,0,336,320Z"/>
  <path d="M432,320H400a16,16,0,0,0-16,16v32a16,16,0,0,0,16,16h32a16,16,0,0,0,16-16V336A16,16,0,0,0,432,320Z"/>
</svg> 